<?xml version="1.0" standalone="no"?>
<!DOCTYPE svg PUBLIC "-//W3C//DTD SVG 20010904//EN"
 "http://www.w3.org/TR/2001/REC-SVG-20010904/DTD/svg10.dtd">
<svg version="1.0" xmlns="http://www.w3.org/2000/svg"
 width="379.000000pt" height="133.000000pt" viewBox="0 0 379.000000 133.000000"
 preserveAspectRatio="xMidYMid meet">

<g transform="translate(0.000000,133.000000) scale(0.100000,-0.100000)"
fill="#000000" stroke="none">
<path d="M1232 980 c-33 -15 -47 -29 -61 -62 -29 -67 -95 -380 -87 -412 18
-70 194 -76 258 -9 21 23 48 86 48 115 0 3 -27 8 -60 10 l-60 3 -13 -45 c-8
-28 -19 -46 -30 -48 -21 -4 -23 27 -6 93 l11 44 86 3 87 3 28 123 c17 71 26
133 23 148 -14 53 -140 72 -224 34z m98 -72 c0 -7 -7 -45 -16 -85 -15 -60 -21
-72 -41 -76 -27 -5 -28 -4 -7 81 18 72 29 92 50 92 8 0 14 -6 14 -12z"/>
<path d="M1525 988 c-2 -7 -25 -103 -49 -213 -25 -110 -57 -248 -71 -307 -14
-59 -25 -113 -25 -118 0 -7 23 -10 62 -8 l62 3 13 61 14 62 33 -10 c19 -6 50
-8 69 -4 69 13 74 23 127 256 27 118 50 221 50 228 0 7 -11 24 -25 37 -26 27
-80 34 -116 15 -13 -7 -19 -7 -19 0 0 15 -120 13 -125 -2z m149 -76 c9 -15
-77 -374 -92 -379 -30 -12 -32 15 -8 123 39 172 57 248 62 256 7 10 31 10 38
0z"/>
<path d="M1935 986 c-60 -23 -72 -42 -101 -158 l-6 -28 60 0 61 0 11 56 c11
54 31 77 51 57 6 -6 5 -28 -3 -62 -12 -51 -12 -52 -88 -92 -43 -22 -87 -51
-100 -64 -23 -25 -60 -139 -60 -187 0 -41 38 -62 98 -54 26 4 79 6 117 6 l70
-1 50 222 c27 122 48 234 47 248 -1 14 -11 34 -21 44 -25 26 -131 33 -186 13z
m20 -371 c-17 -73 -35 -99 -55 -79 -15 15 16 126 41 147 12 9 24 15 26 13 3
-2 -3 -39 -12 -81z"/>
<path d="M2210 995 c0 -8 -110 -496 -116 -517 -5 -16 2 -18 59 -18 l63 0 49
218 c48 217 63 258 87 234 9 -9 1 -60 -38 -232 l-50 -220 63 0 c57 0 63 2 68
23 3 12 26 112 50 222 25 109 51 202 57 206 19 12 38 -2 33 -25 -47 -203 -95
-416 -95 -421 0 -3 28 -5 62 -3 l62 3 52 230 c29 127 53 238 54 248 1 51 -75
72 -141 39 -35 -18 -37 -18 -59 0 -25 20 -65 23 -104 8 -17 -6 -26 -6 -26 0 0
6 -29 10 -65 10 -36 0 -65 -2 -65 -5z"/>
<path d="M851 855 c-134 -47 -247 -87 -250 -91 -7 -7 -31 -108 -26 -112 1 -1
101 -36 221 -77 l219 -73 12 51 c7 29 9 55 5 58 -4 4 -56 23 -117 43 -60 20
-116 40 -123 45 -9 5 38 26 140 60 l155 53 15 64 c11 44 12 64 4 63 -6 0 -121
-38 -255 -84z"/>
<path d="M2716 915 c-2 -7 -7 -32 -11 -56 l-7 -44 131 -43 c72 -24 131 -45
131 -47 0 -2 -70 -27 -155 -55 l-155 -52 -9 -36 c-21 -78 -23 -92 -15 -92 4 0
122 39 261 86 l252 86 12 55 c8 32 9 57 3 62 -5 5 -104 40 -221 79 -155 51
-213 67 -217 57z"/>
</g>
</svg>
